<!-- Generator: Adobe Illustrator 20.1.0, SVG Export Plug-In  -->
<svg version="1.1"
	 xmlns="http://www.w3.org/2000/svg" xmlns:xlink="http://www.w3.org/1999/xlink" xmlns:a="http://ns.adobe.com/AdobeSVGViewerExtensions/3.0/"
	 x="0px" y="0px" width="97.6px" height="82.8px" viewBox="0 0 97.6 82.8" enable-background="new 0 0 97.6 82.8"
	 xml:space="preserve">
<defs>
</defs>
<path fill="#FFFFFF" d="M38.4,42.2c0,0-0.1,0-0.1,0c-2.8-0.5-5.5,1.3-7.4,5.7c-1.4,3.4-3.7,5.2-5,5.9c-0.2,0.1-0.2,0.4,0,0.5
	c4,1.3,13.2,3.3,15.7-7.9c0-0.1,0-0.1,0-0.2C40.6,43.5,38.7,42.4,38.4,42.2z"/>
<path fill="none" stroke="#FFFFFF" stroke-width="1.3" stroke-linecap="round" stroke-linejoin="round" stroke-miterlimit="10" d="
	M43.1,36.3c-0.9,1-1.1,1.7-2.3,3.6c0.8,0.5,2.2,1.8,3.2,3.9c2-1.2,3-1.3,4.1-2.2"/>
<path fill="none" stroke="#FFFFFF" stroke-width="1.3" stroke-linecap="round" stroke-linejoin="round" stroke-miterlimit="10" d="
	M55.6,34c7.7-8.5,16.7-19.8,16.2-20.3c-0.5-0.5-12.3,8.2-21,15.5"/>
<path fill="none" stroke="#FFFFFF" stroke-width="1.3" stroke-linecap="round" stroke-linejoin="round" stroke-miterlimit="10" d="
	M66.3,44.7L37.6,16c-2.3-2.3-5.7-2.6-7.7-0.6s-1.7,5.4,0.6,7.7l29.3,29.3L70,55.5l-3.1-10.1L66.3,44.7z"/>
<path fill="none" stroke="#FFFFFF" stroke-width="1.3" stroke-linecap="round" stroke-linejoin="round" stroke-miterlimit="10" d="
	M40.6,19c-1.1-1.1-3.7-0.5-5.6,1.5s-2.6,4.5-1.5,5.6"/>
<path fill="none" stroke="#FFFFFF" stroke-width="1.3" stroke-linecap="round" stroke-linejoin="round" stroke-miterlimit="10" d="
	M66.6,45c-1.1-1.1-3.7-0.5-5.6,1.5c-1.9,1.9-2.6,4.5-1.5,5.6"/>
<path fill="#FFFFFF" d="M65.1,54c0,0,0-3.4,3.4-3.4l1.5,4.9L65.1,54z"/>
<line fill="none" stroke="#FFFFFF" stroke-width="1.3" stroke-linecap="round" stroke-linejoin="round" stroke-miterlimit="10" x1="39" y1="24.5" x2="58.2" y2="43.7"/>
<line fill="none" stroke="#FFFFFF" stroke-width="1.3" stroke-miterlimit="10" x1="56.2" y1="70.5" x2="41.4" y2="70.5"/>
<path fill="none" stroke="#FFFFFF" stroke-width="1.3" stroke-linecap="round" stroke-linejoin="round" stroke-miterlimit="10" d="
	M92.4,0.6H5.2c-2.5,0-4.5,2-4.5,4.5V66c0,2.5,2,4.5,4.5,4.5h36.2h4.1v2.3c0,2.3-1.6,4.4-3.9,4.9l-16,3.8c-0.4,0.1-0.3,0.7,0.1,0.7
	h47c0.4,0,0.5-0.6,0.1-0.7L56,77.7c-2.3-0.5-3.9-2.6-3.9-4.9v-2.2h4.1h36.2c2.5,0,4.5-2,4.5-4.5V5.2C96.9,2.7,94.9,0.6,92.4,0.6z"/>
</svg>
