<!-- Generator: Adobe Illustrator 20.1.0, SVG Export Plug-In  -->
<svg version="1.1"
	 xmlns="http://www.w3.org/2000/svg" xmlns:xlink="http://www.w3.org/1999/xlink" xmlns:a="http://ns.adobe.com/AdobeSVGViewerExtensions/3.0/"
	 x="0px" y="0px" width="245.6px" height="85.5px" viewBox="0 0 245.6 85.5" enable-background="new 0 0 245.6 85.5"
	 xml:space="preserve">
<defs>
</defs>
<g>
	<g>
		<path fill="#FFFFFF" d="M106.6,49.7c0.8,0.8,1.9,1.5,3.4,1.5c1.9,0,3.4-1.5,3.4-3.4V33.5h4.5v14.3c0,4.9-3,7.5-7.5,7.5
			c-2.3,0-4.1-0.8-5.6-2.3L106.6,49.7z"/>
		<path fill="#FFFFFF" d="M125,33.5h4.5v12.8c0,3,1.5,4.9,4.9,4.9c3.4,0,4.9-1.9,4.9-4.9V33.5h4.5v12.8c0,5.3-3,9-9.4,9
			c-6.4,0-9.4-3.8-9.4-9V33.5z"/>
		<path fill="#FFFFFF" d="M151,33.5h9.8c4.5,0,7.2,3,7.2,6.8c0,3.8-2.6,6.8-7.2,6.8h-5.3v7.5H151C151,54.6,151,33.5,151,33.5z
			 M160.1,37.3h-4.9v6h4.9c1.9,0,3-1.1,3-3C163.5,38.4,162,37.3,160.1,37.3z"/>
		<path fill="#FFFFFF" d="M173.6,33.5h4.5V55h-4.5V33.5z"/>
		<path fill="#FFFFFF" d="M190.6,37.3h-6v-3.8h16.6v4.1h-6V55h-4.5C190.6,55,190.6,37.3,190.6,37.3z"/>
		<path fill="#FFFFFF" d="M207.2,33.5h14.7v3.8h-10.5v4.5h10.2v3.8h-10.2v4.9h10.5v3.8h-14.7V33.5z"/>
		<path fill="#FFFFFF" d="M236.2,47.1h-3.4v7.5h-4.5V33.5h9.8c4.5,0,7.2,3,7.2,6.8c0,3.8-2.3,5.6-4.5,6.4l4.9,8.3h-5.3L236.2,47.1z
			 M237.7,37.3h-4.5v6h4.5c1.9,0,3-1.1,3-3C240.7,38.4,239.6,37.3,237.7,37.3z"/>
	</g>
</g>
<g>
	<path fill="#804099" d="M43.7,44.1c-4.3,2.3-8.6,4.7-12.8,7c-3.4,1.9-3.3,2.6-4.5,6.4c-3,9.3-6,18.7-9,28c3.8-2.7,7.6-5.5,11.3-8.2
		c4.9-3.6,10.6-6.9,15.1-11c2.8-2.5,3-8.4,3.8-11.9c0.3-1.4,2.2-5.6,1.7-6.9C48.8,46.3,44.9,44.8,43.7,44.1z"/>
	<path fill="#29AAE1" d="M62.1,52.7c-6.5-1.8-13.1-3.5-19.6-5.3c0.6,4.9,1.2,9.9,1.9,14.8c0.5,3.8,1.1,3.7,4.2,6
		c8,5.7,16,11.5,24.1,17.2C69.2,74.6,65.7,63.7,62.1,52.7z"/>
	<path fill="#FBB042" d="M44.8,0c-3,9.4-6.1,18.9-9.1,28.3c-0.3,1.1-1.5,3.2-1.4,4.3c0.1,0.9,1.3,2,1.8,2.8c2.9,4,5.8,8,8.7,12.1
		c3-4,6-8,9-12.1c0.6-0.8,1.8-1.9,1.9-2.8c0.1-1.1-1.1-3.2-1.4-4.3C51.1,18.9,48,9.4,44.8,0z"/>
	<path fill="#D32027" d="M34.3,32.8c-11.4,0-22.9,0-34.3,0C8.7,39,17.4,45.2,26.1,51.5c0.9,0.6,1.3,1.1,2.2,1.1c2,0,5.1-2,6.9-2.7
		c5-1.9,9.9-3.9,14.9-5.8C44.8,40.3,39.5,36.5,34.3,32.8z"/>
	<path fill="#019547" d="M55.7,32.8c-1.7,1.5-3.5,3-5.2,4.4c-2.2,1.9-5.7,3.9-7.3,6.2c-1.2,1.7,0.3,3.8,0.9,5.9
		c0.8,2.5,1.4,1.9,4,2.2c3.5,0.3,7,0.6,10.5,0.9c1.3,0.1,2.7,0.5,3.9,0c1.8-0.7,3.7-2.6,5.2-3.8c2.9-2,5.7-4.1,8.6-6.1
		c4.5-3.3,9.1-6.5,13.6-9.8C78.6,32.8,67.2,32.8,55.7,32.8z"/>
	<path fill="#019547" d="M55.7,32.8c-3.6,4.9-7.3,9.8-10.9,14.7c4.7,1.4,9.5,2.9,14.2,4.3c0.9,0.3,2.4,1,3.3,0.8
		c1.1-0.2,2.7-2,3.6-2.6c8-5.7,16-11.5,24.1-17.2C78.6,32.8,67.2,32.8,55.7,32.8z"/>
	<path fill="#965FA7" d="M44.8,47.5c-4.6,1.4-9.2,2.9-13.8,4.3c-0.9,0.3-2.6,0.5-3.3,1.2c-0.8,0.8-1.1,3.5-1.5,4.5
		c-3,9.3-6,18.7-9,28c7.9-5.7,15.8-11.4,23.6-17.2c0.9-0.7,3.1-1.7,3.7-2.7c0.5-0.8,0.2-2.6,0.2-3.5C44.8,57.2,44.8,52.3,44.8,47.5z
		"/>
	<path fill="#29AAE1" d="M62.1,52.7c-5.8-1.8-11.6-3.5-17.3-5.3c0,4.9,0,9.8,0,14.7c0,1-0.3,2.7,0.2,3.5c0.6,1,3,2.1,3.9,2.8
		c8,5.7,15.9,11.4,23.9,17.1C69.2,74.6,65.7,63.7,62.1,52.7z"/>
	<path fill="#FBB042" d="M44.8,0c-3,9.4-6.1,18.9-9.1,28.3c-0.3,1.1-1.5,3.2-1.4,4.3c0.1,0.9,1.3,2,1.8,2.8c2.9,4,5.8,8,8.7,12.1
		c3-4,6-8,9-12.1c0.6-0.8,1.8-1.9,1.9-2.8c0.1-1.1-1.1-3.2-1.4-4.3C51.1,18.9,48,9.4,44.8,0z"/>
	<path fill="#D32027" d="M34.3,32.8c-11.4,0-22.9,0-34.3,0c8,5.7,15.9,11.4,23.9,17.1c3.2,2.3,3.3,3.1,6.9,2c4.7-1.5,9.4-2.9,14-4.4
		C41.3,42.6,37.8,37.7,34.3,32.8z"/>
</g>
</svg>
